<svg width="96" height="96" viewBox="0 0 96 96" fill="none" xmlns="http://www.w3.org/2000/svg">
<g filter="url(#filter0_d_172_28)">
<path d="M48 4C70.0914 4 88 21.9086 88 44C88 66.0914 70.0914 84 48 84C25.9086 84 8 66.0914 8 44C8 21.9086 25.9086 4 48 4ZM44.6338 25.1465C43.68 24.9117 42.7427 24.6803 41.833 24.4365L41.8389 24.415L35.7969 22.7939L34.5449 27.4668C34.5449 27.4668 37.7967 28.2736 37.7275 28.3184C39.5011 28.7949 39.8049 29.9791 39.7334 30.9121L37.54 39.1025L34.457 50.6074C34.2295 51.144 33.6627 51.9469 32.4219 51.6162C32.4648 51.6806 29.2732 50.7725 29.2354 50.7617L26.9658 55.7549L32.666 57.2822C33.7279 57.5681 34.7674 57.864 35.7891 58.1465L33.8447 65.4189L38.2207 66.5928L40.1465 59.3975C41.3437 59.7446 42.5033 60.0665 43.6387 60.3691L41.7188 67.5303L46.0996 68.7041L48.0479 61.4453C55.5252 62.9959 61.1775 62.524 63.6699 55.7861C65.6769 50.3619 63.7217 47.1765 59.8096 45.0537C62.6955 44.4414 64.894 42.5903 65.5391 38.6982C66.428 33.3811 62.4145 30.4427 56.8926 28.4326L58.8184 21.2432L54.4375 20.0693L52.5605 27.0693C51.408 26.7605 50.2267 26.4677 49.0508 26.1777L50.9375 19.1318L46.5605 17.959L44.6338 25.1465ZM44.2529 44.499C47.2219 45.2937 56.7623 46.9361 55.2451 52.6045C53.7898 58.0407 44.6412 54.9266 41.6699 54.1328L44.2529 44.499ZM47.7764 31.3506C50.2472 32.0127 58.2289 33.3087 56.8486 38.4658C55.5228 43.4096 47.9091 40.7507 45.4355 40.0879L47.7764 31.3506Z" fill="#FDE0BE"/>
</g>
<defs>
<filter id="filter0_d_172_28" x="0" y="0" width="96" height="96" filterUnits="userSpaceOnUse" color-interpolation-filters="sRGB">
<feFlood flood-opacity="0" result="BackgroundImageFix"/>
<feColorMatrix in="SourceAlpha" type="matrix" values="0 0 0 0 0 0 0 0 0 0 0 0 0 0 0 0 0 0 127 0" result="hardAlpha"/>
<feOffset dy="4"/>
<feGaussianBlur stdDeviation="4"/>
<feComposite in2="hardAlpha" operator="out"/>
<feColorMatrix type="matrix" values="0 0 0 0 0.996078 0 0 0 0 0.913725 0 0 0 0 0.819608 0 0 0 0.05 0"/>
<feBlend mode="normal" in2="BackgroundImageFix" result="effect1_dropShadow_172_28"/>
<feBlend mode="normal" in="SourceGraphic" in2="effect1_dropShadow_172_28" result="shape"/>
</filter>
</defs>
</svg>
